<?xml version="1.0" encoding="UTF-8" standalone="no"?>
<!DOCTYPE svg PUBLIC "-//W3C//DTD SVG 1.1//EN"
 "http://www.w3.org/Graphics/SVG/1.1/DTD/svg11.dtd">
<!-- Generated by graphviz version 12.2.1 (0)
 -->
<!-- Title: classes Pages: 1 -->
<svg width="3534pt" height="1289pt"
 viewBox="0.00 0.00 3533.75 1288.75" xmlns="http://www.w3.org/2000/svg" xmlns:xlink="http://www.w3.org/1999/xlink">
<g id="graph0" class="graph" transform="scale(1 1) rotate(0) translate(4 1284.75)">
<title>classes</title>
<polygon fill="white" stroke="none" points="-4,4 -4,-1284.75 3529.75,-1284.75 3529.75,4 -4,4"/>
<!-- wumpus.events.ArrowHit -->
<g id="node1" class="node">
<title>wumpus.events.ArrowHit</title>
<polygon fill="none" stroke="black" points="0,-82.12 0,-132.62 82,-132.62 82,-82.12 0,-82.12"/>
<text text-anchor="start" x="8" y="-115.33" font-family="Times,serif" font-size="14.00">ArrowHit</text>
<polyline fill="none" stroke="black" points="0,-107.38 82,-107.38"/>
<polyline fill="none" stroke="black" points="0,-107.38 82,-107.38"/>
<text text-anchor="start" x="38.75" y="-90.08" font-family="Times,serif" font-size="14.00"> </text>
</g>
<!-- wumpus.events.ArrowMissed -->
<g id="node2" class="node">
<title>wumpus.events.ArrowMissed</title>
<polygon fill="none" stroke="black" points="99.75,-82.12 99.75,-132.62 210.25,-132.62 210.25,-82.12 99.75,-82.12"/>
<text text-anchor="start" x="107.75" y="-115.33" font-family="Times,serif" font-size="14.00">ArrowMissed</text>
<polyline fill="none" stroke="black" points="99.75,-107.38 210.25,-107.38"/>
<polyline fill="none" stroke="black" points="99.75,-107.38 210.25,-107.38"/>
<text text-anchor="start" x="152.75" y="-90.08" font-family="Times,serif" font-size="14.00"> </text>
</g>
<!-- wumpus.events.ArrowShot -->
<g id="node3" class="node">
<title>wumpus.events.ArrowShot</title>
<polygon fill="none" stroke="black" points="228.75,-82.12 228.75,-132.62 321.25,-132.62 321.25,-82.12 228.75,-82.12"/>
<text text-anchor="start" x="236.75" y="-115.33" font-family="Times,serif" font-size="14.00">ArrowShot</text>
<polyline fill="none" stroke="black" points="228.75,-107.38 321.25,-107.38"/>
<polyline fill="none" stroke="black" points="228.75,-107.38 321.25,-107.38"/>
<text text-anchor="start" x="272.75" y="-90.08" font-family="Times,serif" font-size="14.00"> </text>
</g>
<!-- wumpus.events.EntityMoved -->
<g id="node8" class="node">
<title>wumpus.events.EntityMoved</title>
<polygon fill="none" stroke="black" points="339.88,-458.25 339.88,-534 448.12,-534 448.12,-458.25 339.88,-458.25"/>
<text text-anchor="start" x="347.88" y="-516.7" font-family="Times,serif" font-size="14.00">EntityMoved</text>
<polyline fill="none" stroke="black" points="339.88,-508.75 448.12,-508.75"/>
<text text-anchor="start" x="349.38" y="-491.45" font-family="Times,serif" font-size="14.00">location : int</text>
<polyline fill="none" stroke="black" points="339.88,-483.5 448.12,-483.5"/>
<text text-anchor="start" x="391.75" y="-466.2" font-family="Times,serif" font-size="14.00"> </text>
</g>
<!-- wumpus.events.ArrowShot&#45;&gt;wumpus.events.EntityMoved -->
<g id="edge7" class="edge">
<title>wumpus.events.ArrowShot&#45;&gt;wumpus.events.EntityMoved</title>
<path fill="none" stroke="black" d="M282.53,-132.86C301.88,-195.73 353.56,-363.7 379.18,-446.96"/>
<polygon fill="none" stroke="black" points="375.81,-447.92 382.1,-456.44 382.5,-445.86 375.81,-447.92"/>
</g>
<!-- wumpus.hazards.BottomlessPit -->
<g id="node4" class="node">
<title>wumpus.hazards.BottomlessPit</title>
<polygon fill="none" stroke="black" points="610.75,-60.88 610.75,-153.88 751.25,-153.88 751.25,-60.88 610.75,-60.88"/>
<text text-anchor="start" x="630.75" y="-136.57" font-family="Times,serif" font-size="14.00">BottomlessPit</text>
<polyline fill="none" stroke="black" points="610.75,-128.62 751.25,-128.62"/>
<text text-anchor="start" x="652.88" y="-111.33" font-family="Times,serif" font-size="14.00">location</text>
<polyline fill="none" stroke="black" points="610.75,-103.38 751.25,-103.38"/>
<text text-anchor="start" x="618.75" y="-86.08" font-family="Times,serif" font-size="14.00">nearby_msg()</text>
<text text-anchor="start" x="618.75" y="-68.83" font-family="Times,serif" font-size="14.00">on_player_enter()</text>
</g>
<!-- wumpus.hazards.Hazard -->
<g id="node9" class="node">
<title>wumpus.hazards.Hazard</title>
<polygon fill="none" stroke="black" points="711.25,-423.75 711.25,-568.5 968.75,-568.5 968.75,-423.75 711.25,-423.75"/>
<text text-anchor="start" x="814.12" y="-551.2" font-family="Times,serif" font-size="14.00">Hazard</text>
<polyline fill="none" stroke="black" points="711.25,-543.25 968.75,-543.25"/>
<text text-anchor="start" x="765.75" y="-525.95" font-family="Times,serif" font-size="14.00">level : dict[int, Cave]</text>
<text text-anchor="start" x="765.75" y="-508.7" font-family="Times,serif" font-size="14.00">location : int | None</text>
<polyline fill="none" stroke="black" points="711.25,-500.75 968.75,-500.75"/>
<text text-anchor="start" x="719.25" y="-483.45" font-family="Times,serif" font-size="14.00">nearby_msg(): str</text>
<text text-anchor="start" x="719.25" y="-466.2" font-family="Times,serif" font-size="14.00">on_arrow_enter(): Iterator[Event]</text>
<text text-anchor="start" x="719.25" y="-448.95" font-family="Times,serif" font-size="14.00">on_arrow_miss(): Iterator[Event]</text>
<text text-anchor="start" x="719.25" y="-431.7" font-family="Times,serif" font-size="14.00">on_player_enter(): Iterator[Event]</text>
</g>
<!-- wumpus.hazards.BottomlessPit&#45;&gt;wumpus.hazards.Hazard -->
<g id="edge10" class="edge">
<title>wumpus.hazards.BottomlessPit&#45;&gt;wumpus.hazards.Hazard</title>
<path fill="none" stroke="black" d="M699.86,-154.26C726.04,-217.93 773.81,-334.12 806.22,-412.96"/>
<polygon fill="none" stroke="black" points="802.87,-414.03 809.91,-421.95 809.35,-411.37 802.87,-414.03"/>
</g>
<!-- graphical.gui.button.Button -->
<g id="node5" class="node">
<title>graphical.gui.button.Button</title>
<polygon fill="none" stroke="black" points="986.5,-397.88 986.5,-594.38 1245.5,-594.38 1245.5,-397.88 986.5,-397.88"/>
<text text-anchor="start" x="1091.62" y="-577.08" font-family="Times,serif" font-size="14.00">Button</text>
<polyline fill="none" stroke="black" points="986.5,-569.12 1245.5,-569.12"/>
<text text-anchor="start" x="1045.12" y="-551.83" font-family="Times,serif" font-size="14.00">bg_colour : tuple</text>
<text text-anchor="start" x="1045.12" y="-534.58" font-family="Times,serif" font-size="14.00">font</text>
<text text-anchor="start" x="1045.12" y="-517.33" font-family="Times,serif" font-size="14.00">hover_colour : tuple</text>
<text text-anchor="start" x="1045.12" y="-500.07" font-family="Times,serif" font-size="14.00">hovered : bool</text>
<text text-anchor="start" x="1045.12" y="-482.82" font-family="Times,serif" font-size="14.00">rect</text>
<text text-anchor="start" x="1045.12" y="-465.57" font-family="Times,serif" font-size="14.00">text : str</text>
<text text-anchor="start" x="1045.12" y="-448.32" font-family="Times,serif" font-size="14.00">text_colour : tuple</text>
<polyline fill="none" stroke="black" points="986.5,-440.38 1245.5,-440.38"/>
<text text-anchor="start" x="994.5" y="-423.07" font-family="Times,serif" font-size="14.00">paint(surface: pg.surface.Surface)</text>
<text text-anchor="start" x="994.5" y="-405.82" font-family="Times,serif" font-size="14.00">update(up: bool)</text>
</g>
<!-- graphical.gui.element.Element -->
<g id="node7" class="node">
<title>graphical.gui.element.Element</title>
<polygon fill="none" stroke="black" points="1078,-855.62 1078,-931.38 1154,-931.38 1154,-855.62 1078,-855.62"/>
<text text-anchor="start" x="1086" y="-914.08" font-family="Times,serif" font-size="14.00">Element</text>
<polyline fill="none" stroke="black" points="1078,-906.12 1154,-906.12"/>
<text text-anchor="start" x="1101.75" y="-888.83" font-family="Times,serif" font-size="14.00">rect</text>
<polyline fill="none" stroke="black" points="1078,-880.88 1154,-880.88"/>
<text text-anchor="start" x="1113.75" y="-863.58" font-family="Times,serif" font-size="14.00"> </text>
</g>
<!-- graphical.gui.button.Button&#45;&gt;graphical.gui.element.Element -->
<g id="edge1" class="edge">
<title>graphical.gui.button.Button&#45;&gt;graphical.gui.element.Element</title>
<path fill="none" stroke="black" d="M1116,-594.86C1116,-674.13 1116,-782.5 1116,-844.23"/>
<polygon fill="none" stroke="black" points="1112.5,-844.05 1116,-854.05 1119.5,-844.05 1112.5,-844.05"/>
</g>
<!-- graphical.scenes.how_to_play.HowToPlay -->
<g id="node10" class="node">
<title>graphical.scenes.how_to_play.HowToPlay</title>
<polygon fill="none" stroke="black" points="906.38,-838.38 906.38,-948.62 1059.62,-948.62 1059.62,-838.38 906.38,-838.38"/>
<text text-anchor="start" x="943.25" y="-931.33" font-family="Times,serif" font-size="14.00">HowToPlay</text>
<polyline fill="none" stroke="black" points="906.38,-923.38 1059.62,-923.38"/>
<text text-anchor="start" x="941" y="-906.08" font-family="Times,serif" font-size="14.00">back</text>
<text text-anchor="start" x="941" y="-888.83" font-family="Times,serif" font-size="14.00">background</text>
<text text-anchor="start" x="941" y="-871.58" font-family="Times,serif" font-size="14.00">screen</text>
<polyline fill="none" stroke="black" points="906.38,-863.62 1059.62,-863.62"/>
<text text-anchor="start" x="914.38" y="-846.33" font-family="Times,serif" font-size="14.00">handle_pg_events()</text>
</g>
<!-- graphical.gui.button.Button&#45;&gt;graphical.scenes.how_to_play.HowToPlay -->
<g id="edge13" class="edge">
<title>graphical.gui.button.Button&#45;&gt;graphical.scenes.how_to_play.HowToPlay</title>
<path fill="none" stroke="black" d="M1083.12,-594.86C1058.93,-666.78 1026.68,-762.67 1005.39,-825.93"/>
<polygon fill="black" stroke="black" points="1005.4,-825.9 1007.28,-832.86 1001.58,-837.27 999.7,-830.31 1005.4,-825.9"/>
<text text-anchor="middle" x="1046.32" y="-746.2" font-family="Times,serif" font-size="14.00" fill="green">back</text>
</g>
<!-- graphical.scenes.level_select.LevelSelect -->
<g id="node12" class="node">
<title>graphical.scenes.level_select.LevelSelect</title>
<polygon fill="none" stroke="black" points="1172.12,-803.88 1172.12,-983.12 1407.88,-983.12 1407.88,-803.88 1172.12,-803.88"/>
<text text-anchor="start" x="1248.75" y="-965.83" font-family="Times,serif" font-size="14.00">LevelSelect</text>
<polyline fill="none" stroke="black" points="1172.12,-957.88 1407.88,-957.88"/>
<text text-anchor="start" x="1248" y="-940.58" font-family="Times,serif" font-size="14.00">back</text>
<text text-anchor="start" x="1248" y="-923.33" font-family="Times,serif" font-size="14.00">background</text>
<text text-anchor="start" x="1248" y="-906.08" font-family="Times,serif" font-size="14.00">buttons</text>
<text text-anchor="start" x="1248" y="-888.83" font-family="Times,serif" font-size="14.00">screen</text>
<text text-anchor="start" x="1248" y="-871.58" font-family="Times,serif" font-size="14.00">stack</text>
<polyline fill="none" stroke="black" points="1172.12,-863.62 1407.88,-863.62"/>
<text text-anchor="start" x="1180.12" y="-846.33" font-family="Times,serif" font-size="14.00">handle_pg_events()</text>
<text text-anchor="start" x="1180.12" y="-829.08" font-family="Times,serif" font-size="14.00">paint()</text>
<text text-anchor="start" x="1180.12" y="-811.83" font-family="Times,serif" font-size="14.00">update(): Iterator[SceneEvent]</text>
</g>
<!-- graphical.gui.button.Button&#45;&gt;graphical.scenes.level_select.LevelSelect -->
<g id="edge14" class="edge">
<title>graphical.gui.button.Button&#45;&gt;graphical.scenes.level_select.LevelSelect</title>
<path fill="none" stroke="black" d="M1159.01,-594.86C1185.38,-654.78 1219.07,-731.32 1245.68,-791.78"/>
<polygon fill="black" stroke="black" points="1245.7,-791.84 1251.78,-795.72 1250.54,-802.83 1244.46,-798.95 1245.7,-791.84"/>
<text text-anchor="middle" x="1245.25" y="-746.2" font-family="Times,serif" font-size="14.00" fill="green">back</text>
</g>
<!-- wumpus.cave.Cave -->
<g id="node6" class="node">
<title>wumpus.cave.Cave</title>
<polygon fill="none" stroke="black" points="2668,-52.25 2668,-162.5 2846,-162.5 2846,-52.25 2668,-52.25"/>
<text text-anchor="start" x="2739.38" y="-145.2" font-family="Times,serif" font-size="14.00">Cave</text>
<polyline fill="none" stroke="black" points="2668,-137.25 2846,-137.25"/>
<text text-anchor="start" x="2676" y="-119.95" font-family="Times,serif" font-size="14.00">coords : tuple[float, ...]</text>
<text text-anchor="start" x="2676" y="-102.7" font-family="Times,serif" font-size="14.00">location : int</text>
<text text-anchor="start" x="2676" y="-85.45" font-family="Times,serif" font-size="14.00">tunnels : list[int]</text>
<polyline fill="none" stroke="black" points="2668,-77.5 2846,-77.5"/>
<text text-anchor="start" x="2754.75" y="-60.2" font-family="Times,serif" font-size="14.00"> </text>
</g>
<!-- graphical.scene.Scene -->
<g id="node23" class="node">
<title>graphical.scene.Scene</title>
<polygon fill="none" stroke="black" points="1387.5,-1047 1387.5,-1150.25 1700.5,-1150.25 1700.5,-1047 1387.5,-1047"/>
<text text-anchor="start" x="1522.62" y="-1132.95" font-family="Times,serif" font-size="14.00">Scene</text>
<polyline fill="none" stroke="black" points="1387.5,-1125 1700.5,-1125"/>
<polyline fill="none" stroke="black" points="1387.5,-1125 1700.5,-1125"/>
<text text-anchor="start" x="1395.5" y="-1108.7" font-family="Times,serif" font-style="italic" font-size="14.00">enter</text>
<text text-anchor="start" x="1433.75" y="-1108.7" font-family="Times,serif" font-size="14.00">()</text>
<text text-anchor="start" x="1395.5" y="-1094.7" font-family="Times,serif" font-style="italic" font-size="14.00">exit</text>
<text text-anchor="start" x="1422.5" y="-1094.7" font-family="Times,serif" font-size="14.00">()</text>
<text text-anchor="start" x="1395.5" y="-1080.7" font-family="Times,serif" font-size="14.00">handle_pg_events(): Iterator[SceneEvent]</text>
<text text-anchor="start" x="1395.5" y="-1066.7" font-family="Times,serif" font-style="italic" font-size="14.00">pause</text>
<text text-anchor="start" x="1437.5" y="-1066.7" font-family="Times,serif" font-size="14.00">()</text>
<text text-anchor="start" x="1395.5" y="-1052.7" font-family="Times,serif" font-style="italic" font-size="14.00">resume</text>
<text text-anchor="start" x="1448.75" y="-1052.7" font-family="Times,serif" font-size="14.00">()</text>
</g>
<!-- graphical.scenes.how_to_play.HowToPlay&#45;&gt;graphical.scene.Scene -->
<g id="edge2" class="edge">
<title>graphical.scenes.how_to_play.HowToPlay&#45;&gt;graphical.scene.Scene</title>
<path fill="none" stroke="black" d="M1011.7,-949.03C1026.03,-971.12 1045.39,-994.83 1069,-1009.5 1119.68,-1041 1260.76,-1064.7 1376.09,-1079.55"/>
<polygon fill="none" stroke="black" points="1375.31,-1082.98 1385.67,-1080.77 1376.19,-1076.04 1375.31,-1082.98"/>
</g>
<!-- wumpus.level.Level -->
<g id="node11" class="node">
<title>wumpus.level.Level</title>
<polygon fill="none" stroke="black" points="1965.88,-0.5 1965.88,-214.25 2650.12,-214.25 2650.12,-0.5 1965.88,-0.5"/>
<text text-anchor="start" x="2288.88" y="-196.95" font-family="Times,serif" font-size="14.00">Level</text>
<polyline fill="none" stroke="black" points="1965.88,-189 2650.12,-189"/>
<text text-anchor="start" x="2214.25" y="-171.7" font-family="Times,serif" font-size="14.00">debug : bool</text>
<text text-anchor="start" x="2214.25" y="-154.45" font-family="Times,serif" font-size="14.00">hazards : dict[int, Hazard]</text>
<text text-anchor="start" x="2214.25" y="-137.2" font-family="Times,serif" font-size="14.00">level : dict[int, Cave]</text>
<text text-anchor="start" x="2214.25" y="-119.95" font-family="Times,serif" font-size="14.00">player : int | None</text>
<polyline fill="none" stroke="black" points="1965.88,-112 2650.12,-112"/>
<text text-anchor="start" x="1973.88" y="-94.7" font-family="Times,serif" font-size="14.00">choose_empty_cave(): Cave</text>
<text text-anchor="start" x="1973.88" y="-77.45" font-family="Times,serif" font-size="14.00">get_cave(location: int): Cave</text>
<text text-anchor="start" x="1973.88" y="-60.2" font-family="Times,serif" font-size="14.00">get_hazard_in_cave(cave: Cave): Hazard | None</text>
<text text-anchor="start" x="1973.88" y="-42.95" font-family="Times,serif" font-size="14.00">get_nearby_hazards(cave: Cave)</text>
<text text-anchor="start" x="1973.88" y="-25.7" font-family="Times,serif" font-size="14.00">get_wumpus_location(): int</text>
<text text-anchor="start" x="1973.88" y="-8.45" font-family="Times,serif" font-size="14.00">handle_event(event: Event): Iterator[PlayerKilled | PlayerWon | PlayerMoved | ArrowHit | str]</text>
</g>
<!-- wumpus.player.PlayerController -->
<g id="node15" class="node">
<title>wumpus.player.PlayerController</title>
<polygon fill="none" stroke="black" points="2562,-390.38 2562,-601.88 2914,-601.88 2914,-390.38 2562,-390.38"/>
<text text-anchor="start" x="2678.75" y="-584.58" font-family="Times,serif" font-size="14.00">PlayerController</text>
<polyline fill="none" stroke="black" points="2562,-576.62 2914,-576.62"/>
<text text-anchor="start" x="2697.88" y="-559.33" font-family="Times,serif" font-size="14.00">alive : bool</text>
<text text-anchor="start" x="2697.88" y="-542.08" font-family="Times,serif" font-size="14.00">cave</text>
<text text-anchor="start" x="2697.88" y="-524.83" font-family="Times,serif" font-size="14.00">initial_cave</text>
<text text-anchor="start" x="2697.88" y="-507.57" font-family="Times,serif" font-size="14.00">level</text>
<text text-anchor="start" x="2697.88" y="-490.32" font-family="Times,serif" font-size="14.00">win : bool</text>
<polyline fill="none" stroke="black" points="2562,-482.38 2914,-482.38"/>
<text text-anchor="start" x="2570" y="-466.07" font-family="Times,serif" font-size="14.00">emit_to_level(event: Event): Iterator[ArrowHit]</text>
<text text-anchor="start" x="2570" y="-452.07" font-family="Times,serif" font-size="14.00">get_nearby_msgs()</text>
<text text-anchor="start" x="2570" y="-438.07" font-family="Times,serif" font-style="italic" font-size="14.00">handle_msg</text>
<text text-anchor="start" x="2654.75" y="-438.07" font-family="Times,serif" font-size="14.00">(msg: str)</text>
<text text-anchor="start" x="2570" y="-424.07" font-family="Times,serif" font-size="14.00">move(location: int)</text>
<text text-anchor="start" x="2570" y="-410.07" font-family="Times,serif" font-size="14.00">respawn()</text>
<text text-anchor="start" x="2570" y="-396.07" font-family="Times,serif" font-size="14.00">shoot(locations: list[int])</text>
</g>
<!-- wumpus.level.Level&#45;&gt;wumpus.player.PlayerController -->
<g id="edge26" class="edge">
<title>wumpus.level.Level&#45;&gt;wumpus.player.PlayerController</title>
<path fill="none" stroke="black" d="M2485.54,-214.54C2509.09,-231.32 2532.24,-249.33 2553,-268 2589.88,-301.17 2625.52,-342.03 2655.5,-379.91"/>
<polygon fill="none" stroke="black" points="2655.44,-379.83 2662.29,-382.08 2662.84,-389.27 2655.99,-387.02 2655.44,-379.83"/>
<text text-anchor="middle" x="2545.79" y="-236.7" font-family="Times,serif" font-size="14.00" fill="green">level</text>
</g>
<!-- graphical.scenes.playing.scene.Playing -->
<g id="node19" class="node">
<title>graphical.scenes.playing.scene.Playing</title>
<polygon fill="none" stroke="black" points="2015.12,-778 2015.12,-1009 2250.88,-1009 2250.88,-778 2015.12,-778"/>
<text text-anchor="start" x="2106.38" y="-991.7" font-family="Times,serif" font-size="14.00">Playing</text>
<polyline fill="none" stroke="black" points="2015.12,-983.75 2250.88,-983.75"/>
<text text-anchor="start" x="2076.75" y="-966.45" font-family="Times,serif" font-size="14.00">background</text>
<text text-anchor="start" x="2076.75" y="-949.2" font-family="Times,serif" font-size="14.00">level</text>
<text text-anchor="start" x="2076.75" y="-931.95" font-family="Times,serif" font-size="14.00">level_index : int</text>
<text text-anchor="start" x="2076.75" y="-914.7" font-family="Times,serif" font-size="14.00">map</text>
<text text-anchor="start" x="2076.75" y="-897.45" font-family="Times,serif" font-size="14.00">player</text>
<text text-anchor="start" x="2076.75" y="-880.2" font-family="Times,serif" font-size="14.00">renderer</text>
<text text-anchor="start" x="2076.75" y="-862.95" font-family="Times,serif" font-size="14.00">screen</text>
<text text-anchor="start" x="2076.75" y="-845.7" font-family="Times,serif" font-size="14.00">text</text>
<polyline fill="none" stroke="black" points="2015.12,-837.75 2250.88,-837.75"/>
<text text-anchor="start" x="2023.12" y="-820.45" font-family="Times,serif" font-size="14.00">handle_pg_events()</text>
<text text-anchor="start" x="2023.12" y="-803.2" font-family="Times,serif" font-size="14.00">paint()</text>
<text text-anchor="start" x="2023.12" y="-785.95" font-family="Times,serif" font-size="14.00">update(): Iterator[SceneEvent]</text>
</g>
<!-- wumpus.level.Level&#45;&gt;graphical.scenes.playing.scene.Playing -->
<g id="edge21" class="edge">
<title>wumpus.level.Level&#45;&gt;graphical.scenes.playing.scene.Playing</title>
<path fill="none" stroke="black" d="M1965.43,-161.42C1848.61,-187.04 1738.45,-222.3 1703.25,-268 1672.31,-308.16 1670.7,-685.39 1703.25,-724.25 1789.85,-827.65 1880.46,-719.03 2002,-777.5 2002.55,-777.76 2003.09,-778.03 2003.63,-778.3"/>
<polygon fill="black" stroke="black" points="2003.59,-778.27 2010.76,-777.55 2014.18,-783.9 2007,-784.62 2003.59,-778.27"/>
<text text-anchor="middle" x="1720.12" y="-491.45" font-family="Times,serif" font-size="14.00" fill="green">level</text>
</g>
<!-- graphical.scenes.playing.renderer.Renderer -->
<g id="node22" class="node">
<title>graphical.scenes.playing.renderer.Renderer</title>
<polygon fill="none" stroke="black" points="1745.88,-268.5 1745.88,-723.75 2544.12,-723.75 2544.12,-268.5 1745.88,-268.5"/>
<text text-anchor="start" x="2111.62" y="-706.45" font-family="Times,serif" font-size="14.00">Renderer</text>
<polyline fill="none" stroke="black" points="1745.88,-698.5 2544.12,-698.5"/>
<text text-anchor="start" x="2054.25" y="-681.2" font-family="Times,serif" font-size="14.00">algebra</text>
<text text-anchor="start" x="2054.25" y="-663.95" font-family="Times,serif" font-size="14.00">basis_vectors : list</text>
<text text-anchor="start" x="2054.25" y="-646.7" font-family="Times,serif" font-size="14.00">bat_icon : NoneType</text>
<text text-anchor="start" x="2054.25" y="-629.45" font-family="Times,serif" font-size="14.00">camera_pos : ndarray</text>
<text text-anchor="start" x="2054.25" y="-612.2" font-family="Times,serif" font-size="14.00">dimension</text>
<text text-anchor="start" x="2054.25" y="-594.95" font-family="Times,serif" font-size="14.00">fov : float</text>
<text text-anchor="start" x="2054.25" y="-577.7" font-family="Times,serif" font-size="14.00">level</text>
<text text-anchor="start" x="2054.25" y="-560.45" font-family="Times,serif" font-size="14.00">pit_icon : NoneType</text>
<text text-anchor="start" x="2054.25" y="-543.2" font-family="Times,serif" font-size="14.00">player_icon : NoneType</text>
<text text-anchor="start" x="2054.25" y="-525.95" font-family="Times,serif" font-size="14.00">rotor</text>
<text text-anchor="start" x="2054.25" y="-508.7" font-family="Times,serif" font-size="14.00">wumpus_icon : NoneType</text>
<polyline fill="none" stroke="black" points="1745.88,-500.75 2544.12,-500.75"/>
<text text-anchor="start" x="1753.88" y="-483.45" font-family="Times,serif" font-size="14.00">apply_depth_fade(color, coords: npt.NDArray): pg.Color</text>
<text text-anchor="start" x="1753.88" y="-466.2" font-family="Times,serif" font-size="14.00">draw_cave(surf: pg.surface.Surface, cave, coords: npt.NDArray, player: bool, explored: bool)</text>
<text text-anchor="start" x="1753.88" y="-448.95" font-family="Times,serif" font-size="14.00">draw_icon(surf: pg.surface.Surface, icon: pg.surface.Surface | None, size: int, opacity: int, center: pg.Vector2)</text>
<text text-anchor="start" x="1753.88" y="-431.7" font-family="Times,serif" font-size="14.00">load_icons()</text>
<text text-anchor="start" x="1753.88" y="-414.45" font-family="Times,serif" font-size="14.00">paint(surf: pg.surface.Surface, location: int | None)</text>
<text text-anchor="start" x="1753.88" y="-397.2" font-family="Times,serif" font-size="14.00">perp_dist(coord: npt.NDArray): float</text>
<text text-anchor="start" x="1753.88" y="-379.95" font-family="Times,serif" font-size="14.00">project(coord: npt.NDArray, screen): pg.Vector2</text>
<text text-anchor="start" x="1753.88" y="-362.7" font-family="Times,serif" font-size="14.00">reset_rotor()</text>
<text text-anchor="start" x="1753.88" y="-345.45" font-family="Times,serif" font-size="14.00">reset_zoom()</text>
<text text-anchor="start" x="1753.88" y="-328.2" font-family="Times,serif" font-size="14.00">rotate(bivector: MultiVector, angle: float)</text>
<text text-anchor="start" x="1753.88" y="-310.95" font-family="Times,serif" font-size="14.00">rotated(coord: npt.NDArray): npt.NDArray</text>
<text text-anchor="start" x="1753.88" y="-293.7" font-family="Times,serif" font-size="14.00">vector_from_multivector(mv: MultiVector)</text>
<text text-anchor="start" x="1753.88" y="-276.45" font-family="Times,serif" font-size="14.00">zoom(value: float)</text>
</g>
<!-- wumpus.level.Level&#45;&gt;graphical.scenes.playing.renderer.Renderer -->
<g id="edge25" class="edge">
<title>wumpus.level.Level&#45;&gt;graphical.scenes.playing.renderer.Renderer</title>
<path fill="none" stroke="black" d="M2263.24,-214.57C2257.59,-227.98 2251.64,-242.1 2245.54,-256.57"/>
<polygon fill="none" stroke="black" points="2245.63,-256.36 2246.99,-263.44 2240.97,-267.42 2239.61,-260.34 2245.63,-256.36"/>
<text text-anchor="middle" x="2272.15" y="-236.7" font-family="Times,serif" font-size="14.00" fill="green">level</text>
</g>
<!-- wumpus.tests.test_player.TestPlayerController -->
<g id="node27" class="node">
<title>wumpus.tests.test_player.TestPlayerController</title>
<polygon fill="none" stroke="black" points="2798.62,-795.25 2798.62,-991.75 2965.38,-991.75 2965.38,-795.25 2798.62,-795.25"/>
<text text-anchor="start" x="2807.75" y="-974.45" font-family="Times,serif" font-size="14.00">TestPlayerController</text>
<polyline fill="none" stroke="black" points="2798.62,-966.5 2965.38,-966.5"/>
<text text-anchor="start" x="2859.5" y="-949.2" font-family="Times,serif" font-size="14.00">level</text>
<text text-anchor="start" x="2859.5" y="-931.95" font-family="Times,serif" font-size="14.00">player</text>
<polyline fill="none" stroke="black" points="2798.62,-924 2965.38,-924"/>
<text text-anchor="start" x="2806.62" y="-906.7" font-family="Times,serif" font-size="14.00">setUp()</text>
<text text-anchor="start" x="2806.62" y="-889.45" font-family="Times,serif" font-size="14.00">test_bats()</text>
<text text-anchor="start" x="2806.62" y="-872.2" font-family="Times,serif" font-size="14.00">test_eaten()</text>
<text text-anchor="start" x="2806.62" y="-854.95" font-family="Times,serif" font-size="14.00">test_pit()</text>
<text text-anchor="start" x="2806.62" y="-837.7" font-family="Times,serif" font-size="14.00">test_shoot_self()</text>
<text text-anchor="start" x="2806.62" y="-820.45" font-family="Times,serif" font-size="14.00">test_shoot_wumpus()</text>
<text text-anchor="start" x="2806.62" y="-803.2" font-family="Times,serif" font-size="14.00">test_spawn()</text>
</g>
<!-- wumpus.level.Level&#45;&gt;wumpus.tests.test_player.TestPlayerController -->
<g id="edge22" class="edge">
<title>wumpus.level.Level&#45;&gt;wumpus.tests.test_player.TestPlayerController</title>
<path fill="none" stroke="black" d="M2650.17,-212.51C2653.12,-213.26 2656.07,-214.01 2659,-214.75 2775.07,-243.97 2847.19,-175.37 2923,-268 3041.74,-413.08 2981.79,-646.28 2930.09,-782.92"/>
<polygon fill="black" stroke="black" points="2930.07,-782.98 2931.65,-790.01 2925.76,-794.18 2924.18,-787.14 2930.07,-782.98"/>
<text text-anchor="middle" x="3008.79" y="-491.45" font-family="Times,serif" font-size="14.00" fill="green">level</text>
</g>
<!-- graphical.scenes.level_select.LevelSelect&#45;&gt;graphical.scene.Scene -->
<g id="edge3" class="edge">
<title>graphical.scenes.level_select.LevelSelect&#45;&gt;graphical.scene.Scene</title>
<path fill="none" stroke="black" d="M1385.6,-983.43C1396.04,-992.42 1406.64,-1001.27 1417,-1009.5 1429.93,-1019.77 1443.98,-1030.19 1457.86,-1040.1"/>
<polygon fill="none" stroke="black" points="1455.53,-1042.74 1465.72,-1045.66 1459.57,-1037.03 1455.53,-1042.74"/>
</g>
<!-- graphical.scenes.menu.MainMenu -->
<g id="node13" class="node">
<title>graphical.scenes.menu.MainMenu</title>
<polygon fill="none" stroke="black" points="1426.12,-812.5 1426.12,-974.5 1661.88,-974.5 1661.88,-812.5 1426.12,-812.5"/>
<text text-anchor="start" x="1505.75" y="-957.2" font-family="Times,serif" font-size="14.00">MainMenu</text>
<polyline fill="none" stroke="black" points="1426.12,-949.25 1661.88,-949.25"/>
<text text-anchor="start" x="1498.62" y="-931.95" font-family="Times,serif" font-size="14.00">background</text>
<text text-anchor="start" x="1498.62" y="-914.7" font-family="Times,serif" font-size="14.00">buttons : list</text>
<text text-anchor="start" x="1498.62" y="-897.45" font-family="Times,serif" font-size="14.00">screen</text>
<text text-anchor="start" x="1498.62" y="-880.2" font-family="Times,serif" font-size="14.00">stack</text>
<polyline fill="none" stroke="black" points="1426.12,-872.25 1661.88,-872.25"/>
<text text-anchor="start" x="1434.12" y="-854.95" font-family="Times,serif" font-size="14.00">handle_pg_events()</text>
<text text-anchor="start" x="1434.12" y="-837.7" font-family="Times,serif" font-size="14.00">paint()</text>
<text text-anchor="start" x="1434.12" y="-820.45" font-family="Times,serif" font-size="14.00">update(): Iterator[SceneEvent]</text>
</g>
<!-- graphical.scenes.menu.MainMenu&#45;&gt;graphical.scene.Scene -->
<g id="edge4" class="edge">
<title>graphical.scenes.menu.MainMenu&#45;&gt;graphical.scene.Scene</title>
<path fill="none" stroke="black" d="M1544,-974.78C1544,-994.89 1544,-1016.17 1544,-1035.27"/>
<polygon fill="none" stroke="black" points="1540.5,-1035.03 1544,-1045.03 1547.5,-1035.03 1540.5,-1035.03"/>
</g>
<!-- graphical.scenes.paused.Paused -->
<g id="node14" class="node">
<title>graphical.scenes.paused.Paused</title>
<polygon fill="none" stroke="black" points="1679.5,-812.5 1679.5,-974.5 1992.5,-974.5 1992.5,-812.5 1679.5,-812.5"/>
<text text-anchor="start" x="1810.5" y="-957.2" font-family="Times,serif" font-size="14.00">Paused</text>
<polyline fill="none" stroke="black" points="1679.5,-949.25 1992.5,-949.25"/>
<text text-anchor="start" x="1790.62" y="-931.95" font-family="Times,serif" font-size="14.00">background</text>
<text text-anchor="start" x="1790.62" y="-914.7" font-family="Times,serif" font-size="14.00">buttons : list</text>
<text text-anchor="start" x="1790.62" y="-897.45" font-family="Times,serif" font-size="14.00">screen</text>
<text text-anchor="start" x="1790.62" y="-880.2" font-family="Times,serif" font-size="14.00">stack</text>
<polyline fill="none" stroke="black" points="1679.5,-872.25 1992.5,-872.25"/>
<text text-anchor="start" x="1687.5" y="-854.95" font-family="Times,serif" font-size="14.00">handle_pg_events(): Iterator[SceneEvent]</text>
<text text-anchor="start" x="1687.5" y="-837.7" font-family="Times,serif" font-size="14.00">paint()</text>
<text text-anchor="start" x="1687.5" y="-820.45" font-family="Times,serif" font-size="14.00">update(): Iterator[SceneEvent]</text>
</g>
<!-- graphical.scenes.paused.Paused&#45;&gt;graphical.scene.Scene -->
<g id="edge5" class="edge">
<title>graphical.scenes.paused.Paused&#45;&gt;graphical.scene.Scene</title>
<path fill="none" stroke="black" d="M1720.63,-974.96C1703.98,-986.55 1687.05,-998.34 1671,-1009.5 1656.68,-1019.46 1641.44,-1030.05 1626.67,-1040.29"/>
<polygon fill="none" stroke="black" points="1625.02,-1037.18 1618.8,-1045.76 1629.01,-1042.93 1625.02,-1037.18"/>
</g>
<!-- wumpus.player.PlayerController&#45;&gt;graphical.scenes.playing.scene.Playing -->
<g id="edge23" class="edge">
<title>wumpus.player.PlayerController&#45;&gt;graphical.scenes.playing.scene.Playing</title>
<path fill="none" stroke="black" d="M2670.09,-602.14C2638.56,-644.51 2598.07,-691.11 2553,-724.25 2465.91,-788.3 2351.07,-832.11 2263.49,-858.93"/>
<polygon fill="black" stroke="black" points="2263.4,-858.96 2258.81,-864.52 2251.91,-862.43 2256.5,-856.86 2263.4,-858.96"/>
<text text-anchor="middle" x="2545.38" y="-746.2" font-family="Times,serif" font-size="14.00" fill="green">player</text>
</g>
<!-- wumpus.player.PlayerController&#45;&gt;wumpus.tests.test_player.TestPlayerController -->
<g id="edge24" class="edge">
<title>wumpus.player.PlayerController&#45;&gt;wumpus.tests.test_player.TestPlayerController</title>
<path fill="none" stroke="black" d="M2776.31,-602.3C2796.6,-658.03 2821.52,-726.43 2842.06,-782.82"/>
<polygon fill="black" stroke="black" points="2842.09,-782.91 2847.9,-787.18 2846.19,-794.19 2840.38,-789.92 2842.09,-782.91"/>
<text text-anchor="middle" x="2853.81" y="-746.2" font-family="Times,serif" font-size="14.00" fill="green">player</text>
</g>
<!-- wumpus.events.PlayerKilled -->
<g id="node16" class="node">
<title>wumpus.events.PlayerKilled</title>
<polygon fill="none" stroke="black" points="2864.5,-82.12 2864.5,-132.62 2967.5,-132.62 2967.5,-82.12 2864.5,-82.12"/>
<text text-anchor="start" x="2872.5" y="-115.33" font-family="Times,serif" font-size="14.00">PlayerKilled</text>
<polyline fill="none" stroke="black" points="2864.5,-107.38 2967.5,-107.38"/>
<polyline fill="none" stroke="black" points="2864.5,-107.38 2967.5,-107.38"/>
<text text-anchor="start" x="2913.75" y="-90.08" font-family="Times,serif" font-size="14.00"> </text>
</g>
<!-- wumpus.events.PlayerMoved -->
<g id="node17" class="node">
<title>wumpus.events.PlayerMoved</title>
<polygon fill="none" stroke="black" points="339.12,-82.12 339.12,-132.62 448.88,-132.62 448.88,-82.12 339.12,-82.12"/>
<text text-anchor="start" x="347.12" y="-115.33" font-family="Times,serif" font-size="14.00">PlayerMoved</text>
<polyline fill="none" stroke="black" points="339.12,-107.38 448.88,-107.38"/>
<polyline fill="none" stroke="black" points="339.12,-107.38 448.88,-107.38"/>
<text text-anchor="start" x="391.75" y="-90.08" font-family="Times,serif" font-size="14.00"> </text>
</g>
<!-- wumpus.events.PlayerMoved&#45;&gt;wumpus.events.EntityMoved -->
<g id="edge8" class="edge">
<title>wumpus.events.PlayerMoved&#45;&gt;wumpus.events.EntityMoved</title>
<path fill="none" stroke="black" d="M394,-132.86C394,-195.6 394,-363.01 394,-446.45"/>
<polygon fill="none" stroke="black" points="390.5,-446.38 394,-456.38 397.5,-446.38 390.5,-446.38"/>
</g>
<!-- wumpus.events.PlayerWon -->
<g id="node18" class="node">
<title>wumpus.events.PlayerWon</title>
<polygon fill="none" stroke="black" points="2985.75,-82.12 2985.75,-132.62 3078.25,-132.62 3078.25,-82.12 2985.75,-82.12"/>
<text text-anchor="start" x="2993.75" y="-115.33" font-family="Times,serif" font-size="14.00">PlayerWon</text>
<polyline fill="none" stroke="black" points="2985.75,-107.38 3078.25,-107.38"/>
<polyline fill="none" stroke="black" points="2985.75,-107.38 3078.25,-107.38"/>
<text text-anchor="start" x="3029.75" y="-90.08" font-family="Times,serif" font-size="14.00"> </text>
</g>
<!-- graphical.scenes.playing.scene.Playing&#45;&gt;graphical.scene.Scene -->
<g id="edge6" class="edge">
<title>graphical.scenes.playing.scene.Playing&#45;&gt;graphical.scene.Scene</title>
<path fill="none" stroke="black" d="M2014.94,-1002.59C2010.67,-1005.06 2006.35,-1007.37 2002,-1009.5 1911.95,-1053.59 1801.85,-1075.64 1712.18,-1086.67"/>
<polygon fill="none" stroke="black" points="1711.8,-1083.18 1702.29,-1087.84 1712.63,-1090.14 1711.8,-1083.18"/>
</g>
<!-- graphical.scene.PopScene -->
<g id="node20" class="node">
<title>graphical.scene.PopScene</title>
<polygon fill="none" stroke="black" points="3096.5,-82.12 3096.5,-132.62 3181.5,-132.62 3181.5,-82.12 3096.5,-82.12"/>
<text text-anchor="start" x="3104.5" y="-115.33" font-family="Times,serif" font-size="14.00">PopScene</text>
<polyline fill="none" stroke="black" points="3096.5,-107.38 3181.5,-107.38"/>
<polyline fill="none" stroke="black" points="3096.5,-107.38 3181.5,-107.38"/>
<text text-anchor="start" x="3136.75" y="-90.08" font-family="Times,serif" font-size="14.00"> </text>
</g>
<!-- graphical.scene.PushScene -->
<g id="node21" class="node">
<title>graphical.scene.PushScene</title>
<polygon fill="none" stroke="black" points="1438,-1204.5 1438,-1280.25 1532,-1280.25 1532,-1204.5 1438,-1204.5"/>
<text text-anchor="start" x="1446" y="-1262.95" font-family="Times,serif" font-size="14.00">PushScene</text>
<polyline fill="none" stroke="black" points="1438,-1255 1532,-1255"/>
<text text-anchor="start" x="1464.75" y="-1237.7" font-family="Times,serif" font-size="14.00">scene</text>
<polyline fill="none" stroke="black" points="1438,-1229.75 1532,-1229.75"/>
<text text-anchor="start" x="1482.75" y="-1212.45" font-family="Times,serif" font-size="14.00"> </text>
</g>
<!-- graphical.scenes.playing.renderer.Renderer&#45;&gt;graphical.scenes.playing.scene.Playing -->
<g id="edge20" class="edge">
<title>graphical.scenes.playing.renderer.Renderer&#45;&gt;graphical.scenes.playing.scene.Playing</title>
<path fill="none" stroke="black" d="M2138.12,-723.97C2137.7,-737.79 2137.28,-751.43 2136.88,-764.59"/>
<polygon fill="black" stroke="black" points="2136.88,-764.69 2140.7,-770.8 2136.52,-776.68 2132.7,-770.56 2136.88,-764.69"/>
<text text-anchor="middle" x="2168.72" y="-746.2" font-family="Times,serif" font-size="14.00" fill="green">renderer</text>
</g>
<!-- graphical.scene.Scene&#45;&gt;graphical.scene.PushScene -->
<g id="edge18" class="edge">
<title>graphical.scene.Scene&#45;&gt;graphical.scene.PushScene</title>
<path fill="none" stroke="black" d="M1522.87,-1150.4C1517.2,-1164.02 1511.08,-1178.73 1505.44,-1192.26"/>
<polygon fill="black" stroke="black" points="1505.39,-1192.38 1506.78,-1199.46 1500.78,-1203.46 1499.39,-1196.39 1505.39,-1192.38"/>
<text text-anchor="middle" x="1534.75" y="-1172.7" font-family="Times,serif" font-size="14.00" fill="green">scene</text>
</g>
<!-- graphical.scene.SwitchScene -->
<g id="node26" class="node">
<title>graphical.scene.SwitchScene</title>
<polygon fill="none" stroke="black" points="1550.25,-1204.5 1550.25,-1280.25 1657.75,-1280.25 1657.75,-1204.5 1550.25,-1204.5"/>
<text text-anchor="start" x="1558.25" y="-1262.95" font-family="Times,serif" font-size="14.00">SwitchScene</text>
<polyline fill="none" stroke="black" points="1550.25,-1255 1657.75,-1255"/>
<text text-anchor="start" x="1583.75" y="-1237.7" font-family="Times,serif" font-size="14.00">scene</text>
<polyline fill="none" stroke="black" points="1550.25,-1229.75 1657.75,-1229.75"/>
<text text-anchor="start" x="1601.75" y="-1212.45" font-family="Times,serif" font-size="14.00"> </text>
</g>
<!-- graphical.scene.Scene&#45;&gt;graphical.scene.SwitchScene -->
<g id="edge19" class="edge">
<title>graphical.scene.Scene&#45;&gt;graphical.scene.SwitchScene</title>
<path fill="none" stroke="black" d="M1565.49,-1150.4C1571.32,-1164.16 1577.61,-1179.03 1583.39,-1192.67"/>
<polygon fill="black" stroke="black" points="1583.28,-1192.41 1589.3,-1196.38 1587.95,-1203.46 1581.93,-1199.5 1583.28,-1192.41"/>
<text text-anchor="middle" x="1599.62" y="-1172.7" font-family="Times,serif" font-size="14.00" fill="green">scene</text>
</g>
<!-- graphical.scene.SceneManager -->
<g id="node24" class="node">
<title>graphical.scene.SceneManager</title>
<polygon fill="none" stroke="black" points="3199.38,-35 3199.38,-179.75 3400.62,-179.75 3400.62,-35 3199.38,-35"/>
<text text-anchor="start" x="3246.75" y="-162.45" font-family="Times,serif" font-size="14.00">SceneManager</text>
<polyline fill="none" stroke="black" points="3199.38,-154.5 3400.62,-154.5"/>
<text text-anchor="start" x="3231.38" y="-137.2" font-family="Times,serif" font-size="14.00">scenes : list[Scene]</text>
<polyline fill="none" stroke="black" points="3199.38,-129.25 3400.62,-129.25"/>
<text text-anchor="start" x="3207.38" y="-111.95" font-family="Times,serif" font-size="14.00">current()</text>
<text text-anchor="start" x="3207.38" y="-94.7" font-family="Times,serif" font-size="14.00">handle_pg_events()</text>
<text text-anchor="start" x="3207.38" y="-77.45" font-family="Times,serif" font-size="14.00">pop()</text>
<text text-anchor="start" x="3207.38" y="-60.2" font-family="Times,serif" font-size="14.00">push(scene: Scene)</text>
<text text-anchor="start" x="3207.38" y="-42.95" font-family="Times,serif" font-size="14.00">switch(new_scene: Scene)</text>
</g>
<!-- wumpus.hazards.Superbats -->
<g id="node25" class="node">
<title>wumpus.hazards.Superbats</title>
<polygon fill="none" stroke="black" points="769.75,-60.88 769.75,-153.88 910.25,-153.88 910.25,-60.88 769.75,-60.88"/>
<text text-anchor="start" x="803.25" y="-136.57" font-family="Times,serif" font-size="14.00">Superbats</text>
<polyline fill="none" stroke="black" points="769.75,-128.62 910.25,-128.62"/>
<text text-anchor="start" x="811.88" y="-111.33" font-family="Times,serif" font-size="14.00">location</text>
<polyline fill="none" stroke="black" points="769.75,-103.38 910.25,-103.38"/>
<text text-anchor="start" x="777.75" y="-86.08" font-family="Times,serif" font-size="14.00">nearby_msg()</text>
<text text-anchor="start" x="777.75" y="-68.83" font-family="Times,serif" font-size="14.00">on_player_enter()</text>
</g>
<!-- wumpus.hazards.Superbats&#45;&gt;wumpus.hazards.Hazard -->
<g id="edge11" class="edge">
<title>wumpus.hazards.Superbats&#45;&gt;wumpus.hazards.Hazard</title>
<path fill="none" stroke="black" d="M840,-154.26C840,-217.67 840,-333.18 840,-411.99"/>
<polygon fill="none" stroke="black" points="836.5,-411.83 840,-421.83 843.5,-411.83 836.5,-411.83"/>
</g>
<!-- wumpus.tests.test_hazards.TestWumpus -->
<g id="node28" class="node">
<title>wumpus.tests.test_hazards.TestWumpus</title>
<polygon fill="none" stroke="black" points="3418.25,-82.12 3418.25,-132.62 3525.75,-132.62 3525.75,-82.12 3418.25,-82.12"/>
<text text-anchor="start" x="3426.25" y="-115.33" font-family="Times,serif" font-size="14.00">TestWumpus</text>
<polyline fill="none" stroke="black" points="3418.25,-107.38 3525.75,-107.38"/>
<polyline fill="none" stroke="black" points="3418.25,-107.38 3525.75,-107.38"/>
<text text-anchor="start" x="3430.38" y="-90.08" font-family="Times,serif" font-size="14.00">test_enter()</text>
</g>
<!-- graphical.gui.vstack.VStack -->
<g id="node29" class="node">
<title>graphical.gui.vstack.VStack</title>
<polygon fill="none" stroke="black" points="1423.88,-432.38 1423.88,-559.88 1658.12,-559.88 1658.12,-432.38 1423.88,-432.38"/>
<text text-anchor="start" x="1516.25" y="-542.58" font-family="Times,serif" font-size="14.00">VStack</text>
<polyline fill="none" stroke="black" points="1423.88,-534.62 1658.12,-534.62"/>
<text text-anchor="start" x="1431.88" y="-517.33" font-family="Times,serif" font-size="14.00">elements : Sequence[Element]</text>
<text text-anchor="start" x="1431.88" y="-500.07" font-family="Times,serif" font-size="14.00">gap : int</text>
<text text-anchor="start" x="1431.88" y="-482.82" font-family="Times,serif" font-size="14.00">rect</text>
<text text-anchor="start" x="1431.88" y="-465.57" font-family="Times,serif" font-size="14.00">width : int</text>
<polyline fill="none" stroke="black" points="1423.88,-457.62 1658.12,-457.62"/>
<text text-anchor="start" x="1511" y="-440.32" font-family="Times,serif" font-size="14.00">update()</text>
</g>
<!-- graphical.gui.vstack.VStack&#45;&gt;graphical.scenes.level_select.LevelSelect -->
<g id="edge15" class="edge">
<title>graphical.gui.vstack.VStack&#45;&gt;graphical.scenes.level_select.LevelSelect</title>
<path fill="none" stroke="black" d="M1500.95,-560.21C1461.18,-622.86 1399.6,-719.86 1353.22,-792.92"/>
<polygon fill="black" stroke="black" points="1353.41,-792.62 1353.57,-799.83 1346.97,-802.75 1346.81,-795.55 1353.41,-792.62"/>
<text text-anchor="middle" x="1397.1" y="-746.2" font-family="Times,serif" font-size="14.00" fill="green">stack</text>
</g>
<!-- graphical.gui.vstack.VStack&#45;&gt;graphical.scenes.menu.MainMenu -->
<g id="edge16" class="edge">
<title>graphical.gui.vstack.VStack&#45;&gt;graphical.scenes.menu.MainMenu</title>
<path fill="none" stroke="black" d="M1541.48,-560.21C1541.97,-624.69 1542.73,-725.55 1543.29,-799.24"/>
<polygon fill="black" stroke="black" points="1543.29,-799.31 1547.34,-805.28 1543.38,-811.31 1539.34,-805.34 1543.29,-799.31"/>
<text text-anchor="middle" x="1561.69" y="-746.2" font-family="Times,serif" font-size="14.00" fill="green">stack</text>
</g>
<!-- graphical.gui.vstack.VStack&#45;&gt;graphical.scenes.paused.Paused -->
<g id="edge17" class="edge">
<title>graphical.gui.vstack.VStack&#45;&gt;graphical.scenes.paused.Paused</title>
<path fill="none" stroke="black" d="M1553.47,-560.12C1567.35,-617.18 1594.41,-701.03 1642.5,-759.5 1652.02,-771.07 1658.52,-769.21 1671,-777.5 1684.21,-786.27 1697.93,-795.55 1711.56,-804.88"/>
<polygon fill="black" stroke="black" points="1711.32,-804.72 1718.53,-804.81 1721.21,-811.51 1714,-811.41 1711.32,-804.72"/>
<text text-anchor="middle" x="1661.25" y="-746.2" font-family="Times,serif" font-size="14.00" fill="green">stack</text>
</g>
<!-- wumpus.hazards.Wumpus -->
<g id="node30" class="node">
<title>wumpus.hazards.Wumpus</title>
<polygon fill="none" stroke="black" points="928.62,-35 928.62,-179.75 1119.38,-179.75 1119.38,-35 928.62,-35"/>
<text text-anchor="start" x="993.25" y="-162.45" font-family="Times,serif" font-size="14.00">Wumpus</text>
<polyline fill="none" stroke="black" points="928.62,-154.5 1119.38,-154.5"/>
<text text-anchor="start" x="979.38" y="-137.2" font-family="Times,serif" font-size="14.00">location : int</text>
<polyline fill="none" stroke="black" points="928.62,-129.25 1119.38,-129.25"/>
<text text-anchor="start" x="936.62" y="-111.95" font-family="Times,serif" font-size="14.00">nearby_msg()</text>
<text text-anchor="start" x="936.62" y="-94.7" font-family="Times,serif" font-size="14.00">on_arrow_enter()</text>
<text text-anchor="start" x="936.62" y="-77.45" font-family="Times,serif" font-size="14.00">on_arrow_miss()</text>
<text text-anchor="start" x="936.62" y="-60.2" font-family="Times,serif" font-size="14.00">on_player_enter()</text>
<text text-anchor="start" x="936.62" y="-42.95" font-family="Times,serif" font-size="14.00">startle(): Iterator[Event]</text>
</g>
<!-- wumpus.hazards.Wumpus&#45;&gt;wumpus.hazards.Hazard -->
<g id="edge12" class="edge">
<title>wumpus.hazards.Wumpus&#45;&gt;wumpus.hazards.Hazard</title>
<path fill="none" stroke="black" d="M989.82,-180.21C958.37,-246.32 911.76,-344.29 878.9,-413.37"/>
<polygon fill="none" stroke="black" points="875.94,-411.44 874.8,-421.98 882.26,-414.45 875.94,-411.44"/>
</g>
<!-- wumpus.events.WumpusMoved -->
<g id="node31" class="node">
<title>wumpus.events.WumpusMoved</title>
<polygon fill="none" stroke="black" points="467.25,-82.12 467.25,-132.62 592.75,-132.62 592.75,-82.12 467.25,-82.12"/>
<text text-anchor="start" x="475.25" y="-115.33" font-family="Times,serif" font-size="14.00">WumpusMoved</text>
<polyline fill="none" stroke="black" points="467.25,-107.38 592.75,-107.38"/>
<polyline fill="none" stroke="black" points="467.25,-107.38 592.75,-107.38"/>
<text text-anchor="start" x="527.75" y="-90.08" font-family="Times,serif" font-size="14.00"> </text>
</g>
<!-- wumpus.events.WumpusMoved&#45;&gt;wumpus.events.EntityMoved -->
<g id="edge9" class="edge">
<title>wumpus.events.WumpusMoved&#45;&gt;wumpus.events.EntityMoved</title>
<path fill="none" stroke="black" d="M521.39,-132.86C499.26,-195.79 440.09,-364.04 410.85,-447.22"/>
<polygon fill="none" stroke="black" points="407.61,-445.87 407.6,-456.46 414.21,-448.19 407.61,-445.87"/>
</g>
</g>
</svg>
