<?xml version="1.0" encoding="UTF-8" standalone="no"?>
<!DOCTYPE svg PUBLIC "-//W3C//DTD SVG 1.1//EN"
 "http://www.w3.org/Graphics/SVG/1.1/DTD/svg11.dtd">
<!-- Generated by graphviz version 12.2.1 (0)
 -->
<!-- Title: packages Pages: 1 -->
<svg width="1292pt" height="692pt"
 viewBox="0.00 0.00 1291.88 692.00" xmlns="http://www.w3.org/2000/svg" xmlns:xlink="http://www.w3.org/1999/xlink">
<g id="graph0" class="graph" transform="scale(1 1) rotate(0) translate(4 688)">
<title>packages</title>
<polygon fill="white" stroke="none" points="-4,4 -4,-688 1287.88,-688 1287.88,4 -4,4"/>
<!-- graphical -->
<g id="node1" class="node">
<title>graphical</title>
<polygon fill="none" stroke="black" points="82.75,-36 0,-36 0,0 82.75,0 82.75,-36"/>
<text text-anchor="middle" x="41.38" y="-13.32" font-family="Times,serif" font-size="14.00">graphical</text>
</g>
<!-- graphical.__main__ -->
<g id="node2" class="node">
<title>graphical.__main__</title>
<polygon fill="none" stroke="black" points="250.12,-36 100.62,-36 100.62,0 250.12,0 250.12,-36"/>
<text text-anchor="middle" x="175.38" y="-13.32" font-family="Times,serif" font-size="14.00">graphical.__main__</text>
</g>
<!-- graphical.scene -->
<g id="node9" class="node">
<title>graphical.scene</title>
<polygon fill="none" stroke="black" points="314.25,-396 186.5,-396 186.5,-360 314.25,-360 314.25,-396"/>
<text text-anchor="middle" x="250.38" y="-373.32" font-family="Times,serif" font-size="14.00">graphical.scene</text>
</g>
<!-- graphical.__main__&#45;&gt;graphical.scene -->
<g id="edge1" class="edge">
<title>graphical.__main__&#45;&gt;graphical.scene</title>
<path fill="none" stroke="black" d="M163.98,-36.1C147.87,-61.98 120.38,-113.15 120.38,-161 120.38,-161 120.38,-161 120.38,-235 120.38,-287.84 169.96,-329.58 207.88,-353.77"/>
<polygon fill="black" stroke="black" points="216.2,-358.9 205.32,-357.48 212.98,-356.91 207.69,-353.65 207.69,-353.65 207.69,-353.65 212.98,-356.91 210.05,-349.82 216.2,-358.9"/>
</g>
<!-- graphical.scenes.menu -->
<g id="node13" class="node">
<title>graphical.scenes.menu</title>
<polygon fill="none" stroke="black" points="476.12,-108 296.62,-108 296.62,-72 476.12,-72 476.12,-108"/>
<text text-anchor="middle" x="386.38" y="-85.33" font-family="Times,serif" font-size="14.00">graphical.scenes.menu</text>
</g>
<!-- graphical.__main__&#45;&gt;graphical.scenes.menu -->
<g id="edge2" class="edge">
<title>graphical.__main__&#45;&gt;graphical.scenes.menu</title>
<path fill="none" stroke="black" d="M228.07,-36.48C257.01,-46.08 293.09,-58.05 323.49,-68.14"/>
<polygon fill="black" stroke="black" points="332.83,-71.23 321.92,-72.36 329.24,-70.04 323.33,-68.09 323.33,-68.09 323.33,-68.09 329.24,-70.04 324.75,-63.81 332.83,-71.23"/>
</g>
<!-- graphical.colours -->
<g id="node3" class="node">
<title>graphical.colours</title>
<polygon fill="none" stroke="black" points="663.88,-468 524.88,-468 524.88,-432 663.88,-432 663.88,-468"/>
<text text-anchor="middle" x="594.38" y="-445.32" font-family="Times,serif" font-size="14.00">graphical.colours</text>
</g>
<!-- graphical.gui -->
<g id="node4" class="node">
<title>graphical.gui</title>
<polygon fill="none" stroke="black" points="913.25,-36 803.5,-36 803.5,0 913.25,0 913.25,-36"/>
<text text-anchor="middle" x="858.38" y="-13.32" font-family="Times,serif" font-size="14.00">graphical.gui</text>
</g>
<!-- graphical.gui.button -->
<g id="node5" class="node">
<title>graphical.gui.button</title>
<polygon fill="none" stroke="black" points="850.12,-108 688.62,-108 688.62,-72 850.12,-72 850.12,-108"/>
<text text-anchor="middle" x="769.38" y="-85.33" font-family="Times,serif" font-size="14.00">graphical.gui.button</text>
</g>
<!-- graphical.gui&#45;&gt;graphical.gui.button -->
<g id="edge3" class="edge">
<title>graphical.gui&#45;&gt;graphical.gui.button</title>
<path fill="none" stroke="black" d="M836.37,-36.3C825.46,-44.89 812.1,-55.39 800.19,-64.76"/>
<polygon fill="black" stroke="black" points="792.39,-70.9 797.47,-61.18 795.36,-68.56 800.25,-64.72 800.25,-64.72 800.25,-64.72 795.36,-68.56 803.03,-68.25 792.39,-70.9"/>
</g>
<!-- graphical.gui.vstack -->
<g id="node7" class="node">
<title>graphical.gui.vstack</title>
<polygon fill="none" stroke="black" points="1028.38,-108 868.38,-108 868.38,-72 1028.38,-72 1028.38,-108"/>
<text text-anchor="middle" x="948.38" y="-85.33" font-family="Times,serif" font-size="14.00">graphical.gui.vstack</text>
</g>
<!-- graphical.gui&#45;&gt;graphical.gui.vstack -->
<g id="edge4" class="edge">
<title>graphical.gui&#45;&gt;graphical.gui.vstack</title>
<path fill="none" stroke="black" d="M880.62,-36.3C891.76,-44.97 905.43,-55.6 917.57,-65.04"/>
<polygon fill="black" stroke="black" points="925.11,-70.91 914.45,-68.32 922.13,-68.58 917.22,-64.77 917.22,-64.77 917.22,-64.77 922.13,-68.58 919.98,-61.21 925.11,-70.91"/>
</g>
<!-- graphical.gui.element -->
<g id="node6" class="node">
<title>graphical.gui.element</title>
<polygon fill="none" stroke="black" points="946.38,-180 774.38,-180 774.38,-144 946.38,-144 946.38,-180"/>
<text text-anchor="middle" x="860.38" y="-157.32" font-family="Times,serif" font-size="14.00">graphical.gui.element</text>
</g>
<!-- graphical.gui.button&#45;&gt;graphical.gui.element -->
<g id="edge5" class="edge">
<title>graphical.gui.button&#45;&gt;graphical.gui.element</title>
<path fill="none" stroke="black" d="M791.87,-108.3C803.14,-116.97 816.95,-127.6 829.22,-137.04"/>
<polygon fill="black" stroke="black" points="836.86,-142.91 826.19,-140.38 833.86,-140.6 828.93,-136.81 828.93,-136.81 828.93,-136.81 833.86,-140.6 831.68,-133.25 836.86,-142.91"/>
</g>
<!-- graphical.gui.vstack&#45;&gt;graphical.gui.element -->
<g id="edge6" class="edge">
<title>graphical.gui.vstack&#45;&gt;graphical.gui.element</title>
<path fill="none" stroke="black" d="M926.62,-108.3C915.83,-116.89 902.62,-127.39 890.85,-136.76"/>
<polygon fill="black" stroke="black" points="883.14,-142.89 888.16,-133.15 886.1,-140.54 890.96,-136.67 890.96,-136.67 890.96,-136.67 886.1,-140.54 893.76,-140.19 883.14,-142.89"/>
</g>
<!-- graphical.icons -->
<g id="node8" class="node">
<title>graphical.icons</title>
<polygon fill="none" stroke="black" points="1055.38,-36 931.38,-36 931.38,0 1055.38,0 1055.38,-36"/>
<text text-anchor="middle" x="993.38" y="-13.32" font-family="Times,serif" font-size="14.00">graphical.icons</text>
</g>
<!-- graphical.scenes -->
<g id="node10" class="node">
<title>graphical.scenes</title>
<polygon fill="none" stroke="black" points="522,-36 386.75,-36 386.75,0 522,0 522,-36"/>
<text text-anchor="middle" x="454.38" y="-13.32" font-family="Times,serif" font-size="14.00">graphical.scenes</text>
</g>
<!-- graphical.scenes.how_to_play -->
<g id="node11" class="node">
<title>graphical.scenes.how_to_play</title>
<polygon fill="none" stroke="black" points="455.75,-468 229,-468 229,-432 455.75,-432 455.75,-468"/>
<text text-anchor="middle" x="342.38" y="-445.32" font-family="Times,serif" font-size="14.00">graphical.scenes.how_to_play</text>
</g>
<!-- graphical.scenes&#45;&gt;graphical.scenes.how_to_play -->
<g id="edge7" class="edge">
<title>graphical.scenes&#45;&gt;graphical.scenes.how_to_play</title>
<path fill="none" stroke="black" d="M386.47,-22.47C299.08,-31.02 158.38,-60.4 158.38,-161 158.38,-161 158.38,-161 158.38,-307 158.38,-347.45 150.25,-366 177.38,-396 189.77,-409.71 205.73,-419.89 222.81,-427.45"/>
<polygon fill="black" stroke="black" points="231.85,-431.15 220.9,-431.53 228.35,-429.72 222.6,-427.37 222.6,-427.37 222.6,-427.37 228.35,-429.72 224.3,-423.2 231.85,-431.15"/>
</g>
<!-- graphical.scenes.level_select -->
<g id="node12" class="node">
<title>graphical.scenes.level_select</title>
<polygon fill="none" stroke="black" points="630.5,-180 408.25,-180 408.25,-144 630.5,-144 630.5,-180"/>
<text text-anchor="middle" x="519.38" y="-157.32" font-family="Times,serif" font-size="14.00">graphical.scenes.level_select</text>
</g>
<!-- graphical.scenes&#45;&gt;graphical.scenes.level_select -->
<g id="edge8" class="edge">
<title>graphical.scenes&#45;&gt;graphical.scenes.level_select</title>
<path fill="none" stroke="black" d="M465.45,-36.27C471.73,-46.45 479.48,-59.7 485.38,-72 494.92,-91.91 503.76,-115.27 510.03,-133.05"/>
<polygon fill="black" stroke="black" points="513.28,-142.44 505.75,-134.46 512.04,-138.86 510.01,-132.98 510.01,-132.98 510.01,-132.98 512.04,-138.86 514.26,-131.51 513.28,-142.44"/>
</g>
<!-- graphical.scenes&#45;&gt;graphical.scenes.menu -->
<g id="edge9" class="edge">
<title>graphical.scenes&#45;&gt;graphical.scenes.menu</title>
<path fill="none" stroke="black" d="M437.57,-36.3C429.5,-44.61 419.67,-54.72 410.8,-63.86"/>
<polygon fill="black" stroke="black" points="403.84,-71.02 407.58,-60.71 406.47,-68.31 410.81,-63.85 410.81,-63.85 410.81,-63.85 406.47,-68.31 414.04,-66.98 403.84,-71.02"/>
</g>
<!-- graphical.scenes.playing.scene -->
<g id="node17" class="node">
<title>graphical.scenes.playing.scene</title>
<polygon fill="none" stroke="black" points="742,-324 504.75,-324 504.75,-288 742,-288 742,-324"/>
<text text-anchor="middle" x="623.38" y="-301.32" font-family="Times,serif" font-size="14.00">graphical.scenes.playing.scene</text>
</g>
<!-- graphical.scenes&#45;&gt;graphical.scenes.playing.scene -->
<g id="edge10" class="edge">
<title>graphical.scenes&#45;&gt;graphical.scenes.playing.scene</title>
<path fill="none" stroke="black" d="M502.74,-36.33C547.31,-55.2 610.74,-90.08 639.38,-144 661.87,-186.35 647.25,-243.8 635.01,-277.39"/>
<polygon fill="black" stroke="black" points="631.45,-286.67 630.83,-275.73 632.8,-283.14 635.03,-277.34 635.03,-277.34 635.03,-277.34 632.8,-283.14 639.23,-278.95 631.45,-286.67"/>
</g>
<!-- graphical.scenes.level_select&#45;&gt;graphical.scenes.menu -->
<g id="edge11" class="edge">
<title>graphical.scenes.level_select&#45;&gt;graphical.scenes.menu</title>
<path fill="none" stroke="black" d="M492.49,-143.74C476.08,-134.6 454.69,-123.27 435.39,-113.46"/>
<polygon fill="black" stroke="black" points="426.62,-109.03 437.57,-109.52 429.99,-110.73 435.54,-113.53 435.54,-113.53 435.54,-113.53 429.99,-110.73 433.52,-117.55 426.62,-109.03"/>
</g>
<!-- graphical.scenes.playing -->
<g id="node15" class="node">
<title>graphical.scenes.playing</title>
<polygon fill="none" stroke="black" points="622.5,-252 430.25,-252 430.25,-216 622.5,-216 622.5,-252"/>
<text text-anchor="middle" x="526.38" y="-229.32" font-family="Times,serif" font-size="14.00">graphical.scenes.playing</text>
</g>
<!-- graphical.scenes.level_select&#45;&gt;graphical.scenes.playing -->
<g id="edge12" class="edge">
<title>graphical.scenes.level_select&#45;&gt;graphical.scenes.playing</title>
<path fill="none" stroke="black" d="M521.11,-180.3C521.84,-187.68 522.72,-196.48 523.55,-204.75"/>
<polygon fill="black" stroke="black" points="524.54,-214.68 519.07,-205.18 524.17,-210.92 523.55,-204.73 523.55,-204.73 523.55,-204.73 524.17,-210.92 528.03,-204.29 524.54,-214.68"/>
</g>
<!-- graphical.scenes.menu&#45;&gt;graphical.scenes.how_to_play -->
<g id="edge13" class="edge">
<title>graphical.scenes.menu&#45;&gt;graphical.scenes.how_to_play</title>
<path fill="none" stroke="black" d="M377.26,-108.39C364.37,-134.64 342.38,-186.29 342.38,-233 342.38,-233 342.38,-233 342.38,-307 342.38,-346.26 342.38,-391.62 342.38,-420.31"/>
<polygon fill="black" stroke="black" points="342.38,-430.29 337.88,-420.29 342.38,-426.51 342.38,-420.29 342.38,-420.29 342.38,-420.29 342.38,-426.51 346.88,-420.29 342.38,-430.29"/>
</g>
<!-- graphical.scenes.menu&#45;&gt;graphical.scenes.level_select -->
<g id="edge14" class="edge">
<title>graphical.scenes.menu&#45;&gt;graphical.scenes.level_select</title>
<path fill="none" stroke="black" d="M413.66,-108.48C430.15,-117.66 451.56,-128.99 470.83,-138.78"/>
<polygon fill="black" stroke="black" points="479.58,-143.19 468.63,-142.71 476.2,-141.49 470.65,-138.69 470.65,-138.69 470.65,-138.69 476.2,-141.49 472.67,-134.67 479.58,-143.19"/>
</g>
<!-- graphical.scenes.paused -->
<g id="node14" class="node">
<title>graphical.scenes.paused</title>
<polygon fill="none" stroke="black" points="560.75,-396 370,-396 370,-360 560.75,-360 560.75,-396"/>
<text text-anchor="middle" x="465.38" y="-373.32" font-family="Times,serif" font-size="14.00">graphical.scenes.paused</text>
</g>
<!-- graphical.scenes.paused&#45;&gt;graphical.scenes.how_to_play -->
<g id="edge15" class="edge">
<title>graphical.scenes.paused&#45;&gt;graphical.scenes.how_to_play</title>
<path fill="none" stroke="black" d="M434.65,-396.48C418.83,-405.49 399.35,-416.58 382.37,-426.24"/>
<polygon fill="black" stroke="black" points="373.76,-431.14 380.23,-422.28 377.05,-429.27 382.45,-426.19 382.45,-426.19 382.45,-426.19 377.05,-429.27 384.68,-430.1 373.76,-431.14"/>
</g>
<!-- graphical.scenes.paused&#45;&gt;graphical.scenes.menu -->
<g id="edge16" class="edge">
<title>graphical.scenes.paused&#45;&gt;graphical.scenes.menu</title>
<path fill="none" stroke="black" d="M458.23,-359.68C444.55,-325.8 414.66,-248.1 399.38,-180 394.85,-159.85 391.53,-136.76 389.38,-119.16"/>
<polygon fill="black" stroke="black" points="388.25,-109.41 393.87,-118.83 388.68,-113.17 389.4,-119.35 389.4,-119.35 389.4,-119.35 388.68,-113.17 384.93,-119.87 388.25,-109.41"/>
</g>
<!-- graphical.scenes.playing&#45;&gt;graphical.scenes.playing.scene -->
<g id="edge17" class="edge">
<title>graphical.scenes.playing&#45;&gt;graphical.scenes.playing.scene</title>
<path fill="none" stroke="black" d="M550.35,-252.3C562.48,-261.05 577.38,-271.81 590.55,-281.31"/>
<polygon fill="black" stroke="black" points="598.35,-286.94 587.61,-284.74 595.28,-284.73 590.24,-281.09 590.24,-281.09 590.24,-281.09 595.28,-284.73 592.87,-277.44 598.35,-286.94"/>
</g>
<!-- graphical.scenes.playing.renderer -->
<g id="node16" class="node">
<title>graphical.scenes.playing.renderer</title>
<polygon fill="none" stroke="black" points="876.25,-396 616.5,-396 616.5,-360 876.25,-360 876.25,-396"/>
<text text-anchor="middle" x="746.38" y="-373.32" font-family="Times,serif" font-size="14.00">graphical.scenes.playing.renderer</text>
</g>
<!-- graphical.scenes.playing.renderer&#45;&gt;graphical.colours -->
<g id="edge18" class="edge">
<title>graphical.scenes.playing.renderer&#45;&gt;graphical.colours</title>
<path fill="none" stroke="black" d="M708.41,-396.48C688.39,-405.71 663.61,-417.11 642.28,-426.94"/>
<polygon fill="black" stroke="black" points="633.22,-431.11 640.43,-422.84 636.66,-429.53 642.31,-426.93 642.31,-426.93 642.31,-426.93 636.66,-429.53 644.19,-431.01 633.22,-431.11"/>
</g>
<!-- graphical.utils -->
<g id="node18" class="node">
<title>graphical.utils</title>
<polygon fill="none" stroke="black" points="805.75,-468 687,-468 687,-432 805.75,-432 805.75,-468"/>
<text text-anchor="middle" x="746.38" y="-445.32" font-family="Times,serif" font-size="14.00">graphical.utils</text>
</g>
<!-- graphical.scenes.playing.renderer&#45;&gt;graphical.utils -->
<g id="edge19" class="edge">
<title>graphical.scenes.playing.renderer&#45;&gt;graphical.utils</title>
<path fill="none" stroke="black" d="M746.38,-396.3C746.38,-403.68 746.38,-412.48 746.38,-420.75"/>
<polygon fill="black" stroke="black" points="746.38,-430.68 741.88,-420.68 746.38,-426.9 746.38,-420.68 746.38,-420.68 746.38,-420.68 746.38,-426.9 750.88,-420.68 746.38,-430.68"/>
</g>
<!-- wumpus.hazards -->
<g id="node22" class="node">
<title>wumpus.hazards</title>
<polygon fill="none" stroke="black" points="1112.75,-612 976,-612 976,-576 1112.75,-576 1112.75,-612"/>
<text text-anchor="middle" x="1044.38" y="-589.33" font-family="Times,serif" font-size="14.00">wumpus.hazards</text>
</g>
<!-- graphical.scenes.playing.renderer&#45;&gt;wumpus.hazards -->
<g id="edge20" class="edge">
<title>graphical.scenes.playing.renderer&#45;&gt;wumpus.hazards</title>
<path fill="none" stroke="black" d="M770.51,-396.33C823.62,-434.47 950.71,-525.74 1011.24,-569.2"/>
<polygon fill="black" stroke="black" points="1019.03,-574.8 1008.28,-572.62 1015.95,-572.59 1010.9,-568.96 1010.9,-568.96 1010.9,-568.96 1015.95,-572.59 1013.53,-565.31 1019.03,-574.8"/>
</g>
<!-- wumpus.level -->
<g id="node23" class="node">
<title>wumpus.level</title>
<polygon fill="none" stroke="black" points="1150.5,-540 1036.25,-540 1036.25,-504 1150.5,-504 1150.5,-540"/>
<text text-anchor="middle" x="1093.38" y="-517.33" font-family="Times,serif" font-size="14.00">wumpus.level</text>
</g>
<!-- graphical.scenes.playing.renderer&#45;&gt;wumpus.level -->
<g id="edge21" class="edge">
<title>graphical.scenes.playing.renderer&#45;&gt;wumpus.level</title>
<path fill="none" stroke="black" d="M876.55,-396.05C967.1,-408.49 1072.91,-424.44 1080.38,-432 1095.81,-447.62 1098.21,-472.93 1097.24,-492.58"/>
<polygon fill="black" stroke="black" points="1096.42,-502.44 1092.76,-492.1 1096.73,-498.67 1097.25,-492.47 1097.25,-492.47 1097.25,-492.47 1096.73,-498.67 1101.73,-492.85 1096.42,-502.44"/>
</g>
<!-- graphical.scenes.playing.scene&#45;&gt;graphical.colours -->
<g id="edge22" class="edge">
<title>graphical.scenes.playing.scene&#45;&gt;graphical.colours</title>
<path fill="none" stroke="black" d="M617.38,-324.49C614.05,-334.74 610.05,-347.99 607.38,-360 602.89,-380.16 599.57,-403.24 597.4,-420.85"/>
<polygon fill="black" stroke="black" points="596.26,-430.59 592.96,-420.14 596.7,-426.83 597.43,-420.66 597.43,-420.66 597.43,-420.66 596.7,-426.83 601.9,-421.18 596.26,-430.59"/>
</g>
<!-- graphical.scenes.playing.scene&#45;&gt;graphical.scene -->
<g id="edge23" class="edge">
<title>graphical.scenes.playing.scene&#45;&gt;graphical.scene</title>
<path fill="none" stroke="black" d="M530.21,-324.48C466.94,-336.36 384.34,-351.86 325.32,-362.94"/>
<polygon fill="black" stroke="black" points="315.78,-364.73 324.78,-358.46 319.5,-364.03 325.61,-362.88 325.61,-362.88 325.61,-362.88 319.5,-364.03 326.44,-367.3 315.78,-364.73"/>
</g>
<!-- graphical.scenes.playing.scene&#45;&gt;graphical.scenes.paused -->
<g id="edge24" class="edge">
<title>graphical.scenes.playing.scene&#45;&gt;graphical.scenes.paused</title>
<path fill="none" stroke="black" d="M583.91,-324.48C562.91,-333.79 536.88,-345.32 514.57,-355.21"/>
<polygon fill="black" stroke="black" points="505.72,-359.12 513.04,-350.96 509.18,-357.59 514.86,-355.07 514.86,-355.07 514.86,-355.07 509.18,-357.59 516.69,-359.19 505.72,-359.12"/>
</g>
<!-- graphical.scenes.playing.scene&#45;&gt;graphical.scenes.playing.renderer -->
<g id="edge25" class="edge">
<title>graphical.scenes.playing.scene&#45;&gt;graphical.scenes.playing.renderer</title>
<path fill="none" stroke="black" d="M654.1,-324.48C669.92,-333.49 689.4,-344.58 706.38,-354.24"/>
<polygon fill="black" stroke="black" points="714.99,-359.14 704.07,-358.1 711.7,-357.27 706.3,-354.19 706.3,-354.19 706.3,-354.19 711.7,-357.27 708.52,-350.28 714.99,-359.14"/>
</g>
<!-- wumpus -->
<g id="node19" class="node">
<title>wumpus</title>
<polygon fill="none" stroke="black" points="1149.38,-396 1073.38,-396 1073.38,-360 1149.38,-360 1149.38,-396"/>
<text text-anchor="middle" x="1111.38" y="-373.32" font-family="Times,serif" font-size="14.00">wumpus</text>
</g>
<!-- graphical.scenes.playing.scene&#45;&gt;wumpus -->
<g id="edge26" class="edge">
<title>graphical.scenes.playing.scene&#45;&gt;wumpus</title>
<path fill="none" stroke="black" d="M742.4,-320.66C822.57,-330.36 930.56,-344.4 1025.38,-360 1037.33,-361.97 1050.17,-364.36 1062.19,-366.71"/>
<polygon fill="black" stroke="black" points="1071.75,-368.62 1061.06,-371.08 1068.04,-367.88 1061.94,-366.66 1061.94,-366.66 1061.94,-366.66 1068.04,-367.88 1062.82,-362.25 1071.75,-368.62"/>
</g>
<!-- wumpus.levels -->
<g id="node24" class="node">
<title>wumpus.levels</title>
<polygon fill="none" stroke="black" points="1016.25,-396 894.5,-396 894.5,-360 1016.25,-360 1016.25,-396"/>
<text text-anchor="middle" x="955.38" y="-373.32" font-family="Times,serif" font-size="14.00">wumpus.levels</text>
</g>
<!-- graphical.scenes.playing.scene&#45;&gt;wumpus.levels -->
<g id="edge27" class="edge">
<title>graphical.scenes.playing.scene&#45;&gt;wumpus.levels</title>
<path fill="none" stroke="black" d="M714.19,-324.48C761.94,-333.87 821.68,-345.97 883.56,-359.64"/>
<polygon fill="black" stroke="black" points="893.13,-361.76 882.4,-363.99 889.44,-360.94 883.37,-359.6 883.37,-359.6 883.37,-359.6 889.44,-360.94 884.35,-355.2 893.13,-361.76"/>
</g>
<!-- wumpus.cave -->
<g id="node20" class="node">
<title>wumpus.cave</title>
<polygon fill="none" stroke="black" points="1253.75,-684 1141,-684 1141,-648 1253.75,-648 1253.75,-684"/>
<text text-anchor="middle" x="1197.38" y="-661.33" font-family="Times,serif" font-size="14.00">wumpus.cave</text>
</g>
<!-- wumpus&#45;&gt;wumpus.cave -->
<g id="edge28" class="edge">
<title>wumpus&#45;&gt;wumpus.cave</title>
<path fill="none" stroke="black" d="M1118.8,-396.13C1128.94,-419.98 1147.25,-464.68 1159.38,-504 1173.55,-549.95 1185.44,-604.67 1191.97,-637.02"/>
<polygon fill="black" stroke="black" points="1193.89,-646.68 1187.52,-637.75 1193.15,-642.97 1191.94,-636.87 1191.94,-636.87 1191.94,-636.87 1193.15,-642.97 1196.35,-636 1193.89,-646.68"/>
</g>
<!-- wumpus&#45;&gt;wumpus.level -->
<g id="edge29" class="edge">
<title>wumpus&#45;&gt;wumpus.level</title>
<path fill="none" stroke="black" d="M1113.8,-396.22C1115.87,-414.27 1117.87,-443.37 1113.38,-468 1111.82,-476.51 1108.97,-485.44 1105.9,-493.48"/>
<polygon fill="black" stroke="black" points="1102.14,-502.66 1101.77,-491.7 1103.58,-499.16 1105.93,-493.41 1105.93,-493.41 1105.93,-493.41 1103.58,-499.16 1110.1,-495.11 1102.14,-502.66"/>
</g>
<!-- wumpus.player -->
<g id="node25" class="node">
<title>wumpus.player</title>
<polygon fill="none" stroke="black" points="1071.12,-468 945.62,-468 945.62,-432 1071.12,-432 1071.12,-468"/>
<text text-anchor="middle" x="1008.38" y="-445.32" font-family="Times,serif" font-size="14.00">wumpus.player</text>
</g>
<!-- wumpus&#45;&gt;wumpus.player -->
<g id="edge30" class="edge">
<title>wumpus&#45;&gt;wumpus.player</title>
<path fill="none" stroke="black" d="M1085.65,-396.48C1072.65,-405.32 1056.69,-416.16 1042.66,-425.7"/>
<polygon fill="black" stroke="black" points="1034.78,-431.05 1040.52,-421.71 1037.91,-428.93 1043.05,-425.43 1043.05,-425.43 1043.05,-425.43 1037.91,-428.93 1045.58,-429.16 1034.78,-431.05"/>
</g>
<!-- wumpus.events -->
<g id="node21" class="node">
<title>wumpus.events</title>
<polygon fill="none" stroke="black" points="1077.25,-684 949.5,-684 949.5,-648 1077.25,-648 1077.25,-684"/>
<text text-anchor="middle" x="1013.38" y="-661.33" font-family="Times,serif" font-size="14.00">wumpus.events</text>
</g>
<!-- wumpus.hazards&#45;&gt;wumpus.cave -->
<g id="edge31" class="edge">
<title>wumpus.hazards&#45;&gt;wumpus.cave</title>
<path fill="none" stroke="black" d="M1082.59,-612.48C1102.84,-621.75 1127.91,-633.22 1149.45,-643.07"/>
<polygon fill="black" stroke="black" points="1158.28,-647.11 1147.31,-647.04 1154.84,-645.54 1149.18,-642.95 1149.18,-642.95 1149.18,-642.95 1154.84,-645.54 1151.05,-638.86 1158.28,-647.11"/>
</g>
<!-- wumpus.hazards&#45;&gt;wumpus.events -->
<g id="edge32" class="edge">
<title>wumpus.hazards&#45;&gt;wumpus.events</title>
<path fill="none" stroke="black" d="M1036.71,-612.3C1033.3,-620.02 1029.19,-629.29 1025.38,-637.89"/>
<polygon fill="black" stroke="black" points="1021.44,-646.78 1021.38,-635.82 1022.97,-643.32 1025.49,-637.64 1025.49,-637.64 1025.49,-637.64 1022.97,-643.32 1029.61,-639.46 1021.44,-646.78"/>
</g>
<!-- wumpus.level&#45;&gt;wumpus.cave -->
<g id="edge33" class="edge">
<title>wumpus.level&#45;&gt;wumpus.cave</title>
<path fill="none" stroke="black" d="M1108.91,-540.24C1117.84,-550.4 1129.09,-563.65 1138.38,-576 1153.6,-596.25 1169.39,-620.25 1180.8,-638.22"/>
<polygon fill="black" stroke="black" points="1186,-646.49 1176.87,-640.43 1183.99,-643.29 1180.68,-638.03 1180.68,-638.03 1180.68,-638.03 1183.99,-643.29 1184.48,-635.63 1186,-646.49"/>
</g>
<!-- wumpus.level&#45;&gt;wumpus.events -->
<g id="edge34" class="edge">
<title>wumpus.level&#45;&gt;wumpus.events</title>
<path fill="none" stroke="black" d="M1107.07,-540.49C1119.98,-559.27 1135.42,-589.45 1121.38,-612 1113.24,-625.05 1100.85,-634.98 1087.33,-642.5"/>
<polygon fill="black" stroke="black" points="1078.41,-647.01 1085.3,-638.48 1081.79,-645.31 1087.34,-642.5 1087.34,-642.5 1087.34,-642.5 1081.79,-645.31 1089.37,-646.51 1078.41,-647.01"/>
</g>
<!-- wumpus.level&#45;&gt;wumpus.hazards -->
<g id="edge35" class="edge">
<title>wumpus.level&#45;&gt;wumpus.hazards</title>
<path fill="none" stroke="black" d="M1081.26,-540.3C1075.68,-548.27 1068.94,-557.9 1062.76,-566.74"/>
<polygon fill="black" stroke="black" points="1057.05,-574.9 1059.09,-564.12 1059.22,-571.8 1062.78,-566.71 1062.78,-566.71 1062.78,-566.71 1059.22,-571.8 1066.47,-569.29 1057.05,-574.9"/>
</g>
<!-- wumpus.player&#45;&gt;wumpus.events -->
<g id="edge36" class="edge">
<title>wumpus.player&#45;&gt;wumpus.events</title>
<path fill="none" stroke="black" d="M997.22,-468.29C979.41,-498.18 948.4,-561.2 967.38,-612 971.13,-622.06 977.75,-631.47 984.82,-639.49"/>
<polygon fill="black" stroke="black" points="991.71,-646.73 981.56,-642.59 989.1,-643.99 984.82,-639.49 984.82,-639.49 984.82,-639.49 989.1,-643.99 988.08,-636.39 991.71,-646.73"/>
</g>
<!-- wumpus.player&#45;&gt;wumpus.hazards -->
<g id="edge37" class="edge">
<title>wumpus.player&#45;&gt;wumpus.hazards</title>
<path fill="none" stroke="black" d="M1011.51,-468.18C1014.93,-486.2 1020.79,-515.27 1027.38,-540 1029.6,-548.35 1032.34,-557.32 1034.97,-565.48"/>
<polygon fill="black" stroke="black" points="1038.04,-574.79 1030.64,-566.7 1036.86,-571.19 1034.91,-565.29 1034.91,-565.29 1034.91,-565.29 1036.86,-571.19 1039.18,-563.88 1038.04,-574.79"/>
</g>
<!-- wumpus.player&#45;&gt;wumpus.level -->
<g id="edge38" class="edge">
<title>wumpus.player&#45;&gt;wumpus.level</title>
<path fill="none" stroke="black" d="M1029.39,-468.3C1039.81,-476.89 1052.57,-487.39 1063.94,-496.76"/>
<polygon fill="black" stroke="black" points="1071.37,-502.88 1060.79,-500 1068.45,-500.47 1063.65,-496.52 1063.65,-496.52 1063.65,-496.52 1068.45,-500.47 1066.51,-493.05 1071.37,-502.88"/>
</g>
<!-- wumpus.tests -->
<g id="node26" class="node">
<title>wumpus.tests</title>
<polygon fill="none" stroke="black" points="1189.25,-36 1073.5,-36 1073.5,0 1189.25,0 1189.25,-36"/>
<text text-anchor="middle" x="1131.38" y="-13.32" font-family="Times,serif" font-size="14.00">wumpus.tests</text>
</g>
<!-- wumpus.tests.test_hazards -->
<g id="node27" class="node">
<title>wumpus.tests.test_hazards</title>
<polygon fill="none" stroke="black" points="1283.88,-324 1072.88,-324 1072.88,-288 1283.88,-288 1283.88,-324"/>
<text text-anchor="middle" x="1178.38" y="-301.32" font-family="Times,serif" font-size="14.00">wumpus.tests.test_hazards</text>
</g>
<!-- wumpus.tests.test_hazards&#45;&gt;wumpus -->
<g id="edge39" class="edge">
<title>wumpus.tests.test_hazards&#45;&gt;wumpus</title>
<path fill="none" stroke="black" d="M1161.81,-324.3C1153.86,-332.61 1144.18,-342.72 1135.44,-351.86"/>
<polygon fill="black" stroke="black" points="1128.59,-359.02 1132.25,-348.68 1131.2,-356.28 1135.5,-351.79 1135.5,-351.79 1135.5,-351.79 1131.2,-356.28 1138.75,-354.9 1128.59,-359.02"/>
</g>
<!-- wumpus.tests.test_hazards&#45;&gt;wumpus.cave -->
<g id="edge40" class="edge">
<title>wumpus.tests.test_hazards&#45;&gt;wumpus.cave</title>
<path fill="none" stroke="black" d="M1194.87,-324.23C1217.22,-349.47 1254.38,-398.95 1254.38,-449 1254.38,-449 1254.38,-449 1254.38,-523 1254.38,-565.59 1232.02,-610.52 1215.31,-638.16"/>
<polygon fill="black" stroke="black" points="1210.11,-646.49 1211.59,-635.63 1212.11,-643.29 1215.41,-638.01 1215.41,-638.01 1215.41,-638.01 1212.11,-643.29 1219.22,-640.4 1210.11,-646.49"/>
</g>
<!-- wumpus.tests.test_hazards&#45;&gt;wumpus.events -->
<g id="edge41" class="edge">
<title>wumpus.tests.test_hazards&#45;&gt;wumpus.events</title>
<path fill="none" stroke="black" d="M1132.53,-324.45C1111.01,-333.6 1085.5,-345.85 1064.38,-360 1044.78,-373.13 1045.3,-383.37 1025.38,-396 989.33,-418.84 960.23,-396.62 936.38,-432 914.17,-464.93 897.92,-497.49 957.38,-612 962.89,-622.62 971.39,-632.29 980.11,-640.38"/>
<polygon fill="black" stroke="black" points="987.53,-646.82 977.03,-643.66 984.67,-644.34 979.98,-640.26 979.98,-640.26 979.98,-640.26 984.67,-644.34 982.93,-636.87 987.53,-646.82"/>
</g>
<!-- wumpus.tests.test_hazards&#45;&gt;wumpus.hazards -->
<g id="edge42" class="edge">
<title>wumpus.tests.test_hazards&#45;&gt;wumpus.hazards</title>
<path fill="none" stroke="black" d="M1182.4,-324.45C1190.95,-366.06 1206.47,-472.64 1159.38,-540 1150.11,-553.25 1136.68,-563.26 1122.25,-570.8"/>
<polygon fill="black" stroke="black" points="1113.23,-575.11 1120.31,-566.73 1116.64,-573.48 1122.25,-570.8 1122.25,-570.8 1122.25,-570.8 1116.64,-573.48 1124.19,-574.86 1113.23,-575.11"/>
</g>
<!-- wumpus.tests.test_player -->
<g id="node28" class="node">
<title>wumpus.tests.test_player</title>
<polygon fill="none" stroke="black" points="1055.25,-324 855.5,-324 855.5,-288 1055.25,-288 1055.25,-324"/>
<text text-anchor="middle" x="955.38" y="-301.32" font-family="Times,serif" font-size="14.00">wumpus.tests.test_player</text>
</g>
<!-- wumpus.tests.test_player&#45;&gt;wumpus -->
<g id="edge43" class="edge">
<title>wumpus.tests.test_player&#45;&gt;wumpus</title>
<path fill="none" stroke="black" d="M994.34,-324.48C1015.06,-333.78 1040.74,-345.3 1062.76,-355.18"/>
<polygon fill="black" stroke="black" points="1071.8,-359.24 1060.83,-359.25 1068.35,-357.69 1062.67,-355.15 1062.67,-355.15 1062.67,-355.15 1068.35,-357.69 1064.52,-351.04 1071.8,-359.24"/>
</g>
<!-- wumpus.tests.test_player&#45;&gt;wumpus.levels -->
<g id="edge44" class="edge">
<title>wumpus.tests.test_player&#45;&gt;wumpus.levels</title>
<path fill="none" stroke="black" d="M955.38,-324.3C955.38,-331.68 955.38,-340.48 955.38,-348.75"/>
<polygon fill="black" stroke="black" points="955.38,-358.68 950.88,-348.68 955.38,-354.9 955.38,-348.68 955.38,-348.68 955.38,-348.68 955.38,-354.9 959.88,-348.68 955.38,-358.68"/>
</g>
</g>
</svg>
